<?xml version="1.0" encoding="utf-8" standalone="no"?>
<!DOCTYPE svg PUBLIC "-//W3C//DTD SVG 1.1//EN"
  "http://www.w3.org/Graphics/SVG/1.1/DTD/svg11.dtd">
<svg xmlns:xlink="http://www.w3.org/1999/xlink" width="720pt" height="432pt" viewBox="0 0 720 432" xmlns="http://www.w3.org/2000/svg" version="1.1">
 <metadata>
  <rdf:RDF xmlns:dc="http://purl.org/dc/elements/1.1/" xmlns:cc="http://creativecommons.org/ns#" xmlns:rdf="http://www.w3.org/1999/02/22-rdf-syntax-ns#">
   <cc:Work>
    <dc:type rdf:resource="http://purl.org/dc/dcmitype/StillImage"/>
    <dc:date>2024-11-19T19:05:23.643427</dc:date>
    <dc:format>image/svg+xml</dc:format>
    <dc:creator>
     <cc:Agent>
      <dc:title>Matplotlib v3.9.2, https://matplotlib.org/</dc:title>
     </cc:Agent>
    </dc:creator>
   </cc:Work>
  </rdf:RDF>
 </metadata>
 <defs>
  <style type="text/css">*{stroke-linejoin: round; stroke-linecap: butt}</style>
 </defs>
 <g id="figure_1">
  <g id="patch_1">
   <path d="M 0 432 
L 720 432 
L 720 0 
L 0 0 
z
" style="fill: #ffffff"/>
  </g>
  <g id="axes_1">
   <g id="patch_2">
    <path d="M 50.87 264.758549 
L 709.2 264.758549 
L 709.2 26.88 
L 50.87 26.88 
z
" style="fill: #ffffff"/>
   </g>
   <g id="patch_3">
    <path d="M 80.794091 264.758549 
L 96.860717 264.758549 
L 96.860717 38.20755 
L 80.794091 38.20755 
z
" clip-path="url(#pab5d93cb88)" style="fill: #87ceeb"/>
   </g>
   <g id="patch_4">
    <path d="M 100.877373 264.758549 
L 116.943999 264.758549 
L 116.943999 189.241549 
L 100.877373 189.241549 
z
" clip-path="url(#pab5d93cb88)" style="fill: #87ceeb"/>
   </g>
   <g id="patch_5">
    <path d="M 120.960656 264.758549 
L 137.027282 264.758549 
L 137.027282 193.216128 
L 120.960656 193.216128 
z
" clip-path="url(#pab5d93cb88)" style="fill: #87ceeb"/>
   </g>
   <g id="patch_6">
    <path d="M 141.043938 264.758549 
L 157.110564 264.758549 
L 157.110564 213.089023 
L 141.043938 213.089023 
z
" clip-path="url(#pab5d93cb88)" style="fill: #87ceeb"/>
   </g>
   <g id="patch_7">
    <path d="M 161.127221 264.758549 
L 177.193847 264.758549 
L 177.193847 213.089023 
L 161.127221 213.089023 
z
" clip-path="url(#pab5d93cb88)" style="fill: #87ceeb"/>
   </g>
   <g id="patch_8">
    <path d="M 181.210503 264.758549 
L 197.277129 264.758549 
L 197.277129 226.006404 
L 181.210503 226.006404 
z
" clip-path="url(#pab5d93cb88)" style="fill: #87ceeb"/>
   </g>
   <g id="patch_9">
    <path d="M 201.293786 264.758549 
L 217.360412 264.758549 
L 217.360412 236.439674 
L 201.293786 236.439674 
z
" clip-path="url(#pab5d93cb88)" style="fill: #87ceeb"/>
   </g>
   <g id="patch_10">
    <path d="M 221.377068 264.758549 
L 237.443694 264.758549 
L 237.443694 250.3507 
L 221.377068 250.3507 
z
" clip-path="url(#pab5d93cb88)" style="fill: #87ceeb"/>
   </g>
   <g id="patch_11">
    <path d="M 241.460351 264.758549 
L 257.526977 264.758549 
L 257.526977 255.318924 
L 241.460351 255.318924 
z
" clip-path="url(#pab5d93cb88)" style="fill: #87ceeb"/>
   </g>
   <g id="patch_12">
    <path d="M 261.543633 264.758549 
L 277.610259 264.758549 
L 277.610259 256.809391 
L 261.543633 256.809391 
z
" clip-path="url(#pab5d93cb88)" style="fill: #87ceeb"/>
   </g>
   <g id="patch_13">
    <path d="M 281.626916 264.758549 
L 297.693542 264.758549 
L 297.693542 256.809391 
L 281.626916 256.809391 
z
" clip-path="url(#pab5d93cb88)" style="fill: #87ceeb"/>
   </g>
   <g id="patch_14">
    <path d="M 301.710198 264.758549 
L 317.776824 264.758549 
L 317.776824 256.809391 
L 301.710198 256.809391 
z
" clip-path="url(#pab5d93cb88)" style="fill: #87ceeb"/>
   </g>
   <g id="patch_15">
    <path d="M 321.793481 264.758549 
L 337.860107 264.758549 
L 337.860107 257.306213 
L 321.793481 257.306213 
z
" clip-path="url(#pab5d93cb88)" style="fill: #87ceeb"/>
   </g>
   <g id="patch_16">
    <path d="M 341.876763 264.758549 
L 357.943389 264.758549 
L 357.943389 257.803036 
L 341.876763 257.803036 
z
" clip-path="url(#pab5d93cb88)" style="fill: #87ceeb"/>
   </g>
   <g id="patch_17">
    <path d="M 361.960046 264.758549 
L 378.026672 264.758549 
L 378.026672 258.299858 
L 361.960046 258.299858 
z
" clip-path="url(#pab5d93cb88)" style="fill: #87ceeb"/>
   </g>
   <g id="patch_18">
    <path d="M 382.043328 264.758549 
L 398.109954 264.758549 
L 398.109954 258.299858 
L 382.043328 258.299858 
z
" clip-path="url(#pab5d93cb88)" style="fill: #87ceeb"/>
   </g>
   <g id="patch_19">
    <path d="M 402.126611 264.758549 
L 418.193237 264.758549 
L 418.193237 258.79668 
L 402.126611 258.79668 
z
" clip-path="url(#pab5d93cb88)" style="fill: #87ceeb"/>
   </g>
   <g id="patch_20">
    <path d="M 422.209893 264.758549 
L 438.276519 264.758549 
L 438.276519 258.79668 
L 422.209893 258.79668 
z
" clip-path="url(#pab5d93cb88)" style="fill: #87ceeb"/>
   </g>
   <g id="patch_21">
    <path d="M 442.293176 264.758549 
L 458.359802 264.758549 
L 458.359802 260.287148 
L 442.293176 260.287148 
z
" clip-path="url(#pab5d93cb88)" style="fill: #87ceeb"/>
   </g>
   <g id="patch_22">
    <path d="M 462.376458 264.758549 
L 478.443084 264.758549 
L 478.443084 260.287148 
L 462.376458 260.287148 
z
" clip-path="url(#pab5d93cb88)" style="fill: #87ceeb"/>
   </g>
   <g id="patch_23">
    <path d="M 482.459741 264.758549 
L 498.526367 264.758549 
L 498.526367 260.78397 
L 482.459741 260.78397 
z
" clip-path="url(#pab5d93cb88)" style="fill: #87ceeb"/>
   </g>
   <g id="patch_24">
    <path d="M 502.543023 264.758549 
L 518.609649 264.758549 
L 518.609649 260.78397 
L 502.543023 260.78397 
z
" clip-path="url(#pab5d93cb88)" style="fill: #87ceeb"/>
   </g>
   <g id="patch_25">
    <path d="M 522.626306 264.758549 
L 538.692932 264.758549 
L 538.692932 260.78397 
L 522.626306 260.78397 
z
" clip-path="url(#pab5d93cb88)" style="fill: #87ceeb"/>
   </g>
   <g id="patch_26">
    <path d="M 542.709588 264.758549 
L 558.776214 264.758549 
L 558.776214 261.280792 
L 542.709588 261.280792 
z
" clip-path="url(#pab5d93cb88)" style="fill: #87ceeb"/>
   </g>
   <g id="patch_27">
    <path d="M 562.792871 264.758549 
L 578.859497 264.758549 
L 578.859497 261.280792 
L 562.792871 261.280792 
z
" clip-path="url(#pab5d93cb88)" style="fill: #87ceeb"/>
   </g>
   <g id="patch_28">
    <path d="M 582.876153 264.758549 
L 598.942779 264.758549 
L 598.942779 261.777615 
L 582.876153 261.777615 
z
" clip-path="url(#pab5d93cb88)" style="fill: #87ceeb"/>
   </g>
   <g id="patch_29">
    <path d="M 602.959436 264.758549 
L 619.026062 264.758549 
L 619.026062 261.777615 
L 602.959436 261.777615 
z
" clip-path="url(#pab5d93cb88)" style="fill: #87ceeb"/>
   </g>
   <g id="patch_30">
    <path d="M 623.042718 264.758549 
L 639.109344 264.758549 
L 639.109344 262.274437 
L 623.042718 262.274437 
z
" clip-path="url(#pab5d93cb88)" style="fill: #87ceeb"/>
   </g>
   <g id="patch_31">
    <path d="M 643.126001 264.758549 
L 659.192627 264.758549 
L 659.192627 262.274437 
L 643.126001 262.274437 
z
" clip-path="url(#pab5d93cb88)" style="fill: #87ceeb"/>
   </g>
   <g id="patch_32">
    <path d="M 663.209283 264.758549 
L 679.275909 264.758549 
L 679.275909 262.274437 
L 663.209283 262.274437 
z
" clip-path="url(#pab5d93cb88)" style="fill: #87ceeb"/>
   </g>
   <g id="matplotlib.axis_1">
    <g id="xtick_1">
     <g id="line2d_1">
      <defs>
       <path id="m06449f37c0" d="M 0 0 
L 0 3.5 
" style="stroke: #000000; stroke-width: 0.8"/>
      </defs>
      <g>
       <use xlink:href="#m06449f37c0" x="88.827404" y="264.758549" style="stroke: #000000; stroke-width: 0.8"/>
      </g>
     </g>
     <g id="text_1">
      <!-- Pornography -->
      <g transform="translate(42.547265 321.941033) rotate(-45) scale(0.1 -0.1)">
       <defs>
        <path id="DejaVuSans-50" d="M 1259 4147 
L 1259 2394 
L 2053 2394 
Q 2494 2394 2734 2622 
Q 2975 2850 2975 3272 
Q 2975 3691 2734 3919 
Q 2494 4147 2053 4147 
L 1259 4147 
z
M 628 4666 
L 2053 4666 
Q 2838 4666 3239 4311 
Q 3641 3956 3641 3272 
Q 3641 2581 3239 2228 
Q 2838 1875 2053 1875 
L 1259 1875 
L 1259 0 
L 628 0 
L 628 4666 
z
" transform="scale(0.015625)"/>
        <path id="DejaVuSans-6f" d="M 1959 3097 
Q 1497 3097 1228 2736 
Q 959 2375 959 1747 
Q 959 1119 1226 758 
Q 1494 397 1959 397 
Q 2419 397 2687 759 
Q 2956 1122 2956 1747 
Q 2956 2369 2687 2733 
Q 2419 3097 1959 3097 
z
M 1959 3584 
Q 2709 3584 3137 3096 
Q 3566 2609 3566 1747 
Q 3566 888 3137 398 
Q 2709 -91 1959 -91 
Q 1206 -91 779 398 
Q 353 888 353 1747 
Q 353 2609 779 3096 
Q 1206 3584 1959 3584 
z
" transform="scale(0.015625)"/>
        <path id="DejaVuSans-72" d="M 2631 2963 
Q 2534 3019 2420 3045 
Q 2306 3072 2169 3072 
Q 1681 3072 1420 2755 
Q 1159 2438 1159 1844 
L 1159 0 
L 581 0 
L 581 3500 
L 1159 3500 
L 1159 2956 
Q 1341 3275 1631 3429 
Q 1922 3584 2338 3584 
Q 2397 3584 2469 3576 
Q 2541 3569 2628 3553 
L 2631 2963 
z
" transform="scale(0.015625)"/>
        <path id="DejaVuSans-6e" d="M 3513 2113 
L 3513 0 
L 2938 0 
L 2938 2094 
Q 2938 2591 2744 2837 
Q 2550 3084 2163 3084 
Q 1697 3084 1428 2787 
Q 1159 2491 1159 1978 
L 1159 0 
L 581 0 
L 581 3500 
L 1159 3500 
L 1159 2956 
Q 1366 3272 1645 3428 
Q 1925 3584 2291 3584 
Q 2894 3584 3203 3211 
Q 3513 2838 3513 2113 
z
" transform="scale(0.015625)"/>
        <path id="DejaVuSans-67" d="M 2906 1791 
Q 2906 2416 2648 2759 
Q 2391 3103 1925 3103 
Q 1463 3103 1205 2759 
Q 947 2416 947 1791 
Q 947 1169 1205 825 
Q 1463 481 1925 481 
Q 2391 481 2648 825 
Q 2906 1169 2906 1791 
z
M 3481 434 
Q 3481 -459 3084 -895 
Q 2688 -1331 1869 -1331 
Q 1566 -1331 1297 -1286 
Q 1028 -1241 775 -1147 
L 775 -588 
Q 1028 -725 1275 -790 
Q 1522 -856 1778 -856 
Q 2344 -856 2625 -561 
Q 2906 -266 2906 331 
L 2906 616 
Q 2728 306 2450 153 
Q 2172 0 1784 0 
Q 1141 0 747 490 
Q 353 981 353 1791 
Q 353 2603 747 3093 
Q 1141 3584 1784 3584 
Q 2172 3584 2450 3431 
Q 2728 3278 2906 2969 
L 2906 3500 
L 3481 3500 
L 3481 434 
z
" transform="scale(0.015625)"/>
        <path id="DejaVuSans-61" d="M 2194 1759 
Q 1497 1759 1228 1600 
Q 959 1441 959 1056 
Q 959 750 1161 570 
Q 1363 391 1709 391 
Q 2188 391 2477 730 
Q 2766 1069 2766 1631 
L 2766 1759 
L 2194 1759 
z
M 3341 1997 
L 3341 0 
L 2766 0 
L 2766 531 
Q 2569 213 2275 61 
Q 1981 -91 1556 -91 
Q 1019 -91 701 211 
Q 384 513 384 1019 
Q 384 1609 779 1909 
Q 1175 2209 1959 2209 
L 2766 2209 
L 2766 2266 
Q 2766 2663 2505 2880 
Q 2244 3097 1772 3097 
Q 1472 3097 1187 3025 
Q 903 2953 641 2809 
L 641 3341 
Q 956 3463 1253 3523 
Q 1550 3584 1831 3584 
Q 2591 3584 2966 3190 
Q 3341 2797 3341 1997 
z
" transform="scale(0.015625)"/>
        <path id="DejaVuSans-70" d="M 1159 525 
L 1159 -1331 
L 581 -1331 
L 581 3500 
L 1159 3500 
L 1159 2969 
Q 1341 3281 1617 3432 
Q 1894 3584 2278 3584 
Q 2916 3584 3314 3078 
Q 3713 2572 3713 1747 
Q 3713 922 3314 415 
Q 2916 -91 2278 -91 
Q 1894 -91 1617 61 
Q 1341 213 1159 525 
z
M 3116 1747 
Q 3116 2381 2855 2742 
Q 2594 3103 2138 3103 
Q 1681 3103 1420 2742 
Q 1159 2381 1159 1747 
Q 1159 1113 1420 752 
Q 1681 391 2138 391 
Q 2594 391 2855 752 
Q 3116 1113 3116 1747 
z
" transform="scale(0.015625)"/>
        <path id="DejaVuSans-68" d="M 3513 2113 
L 3513 0 
L 2938 0 
L 2938 2094 
Q 2938 2591 2744 2837 
Q 2550 3084 2163 3084 
Q 1697 3084 1428 2787 
Q 1159 2491 1159 1978 
L 1159 0 
L 581 0 
L 581 4863 
L 1159 4863 
L 1159 2956 
Q 1366 3272 1645 3428 
Q 1925 3584 2291 3584 
Q 2894 3584 3203 3211 
Q 3513 2838 3513 2113 
z
" transform="scale(0.015625)"/>
        <path id="DejaVuSans-79" d="M 2059 -325 
Q 1816 -950 1584 -1140 
Q 1353 -1331 966 -1331 
L 506 -1331 
L 506 -850 
L 844 -850 
Q 1081 -850 1212 -737 
Q 1344 -625 1503 -206 
L 1606 56 
L 191 3500 
L 800 3500 
L 1894 763 
L 2988 3500 
L 3597 3500 
L 2059 -325 
z
" transform="scale(0.015625)"/>
       </defs>
       <use xlink:href="#DejaVuSans-50"/>
       <use xlink:href="#DejaVuSans-6f" x="56.677734"/>
       <use xlink:href="#DejaVuSans-72" x="117.859375"/>
       <use xlink:href="#DejaVuSans-6e" x="157.222656"/>
       <use xlink:href="#DejaVuSans-6f" x="220.601562"/>
       <use xlink:href="#DejaVuSans-67" x="281.783203"/>
       <use xlink:href="#DejaVuSans-72" x="345.259766"/>
       <use xlink:href="#DejaVuSans-61" x="386.373047"/>
       <use xlink:href="#DejaVuSans-70" x="447.652344"/>
       <use xlink:href="#DejaVuSans-68" x="511.128906"/>
       <use xlink:href="#DejaVuSans-79" x="574.507812"/>
      </g>
     </g>
    </g>
    <g id="xtick_2">
     <g id="line2d_2">
      <g>
       <use xlink:href="#m06449f37c0" x="108.910686" y="264.758549" style="stroke: #000000; stroke-width: 0.8"/>
      </g>
     </g>
     <g id="text_2">
      <!-- Unknown() -->
      <g transform="translate(69.09947 315.472111) rotate(-45) scale(0.1 -0.1)">
       <defs>
        <path id="DejaVuSans-55" d="M 556 4666 
L 1191 4666 
L 1191 1831 
Q 1191 1081 1462 751 
Q 1734 422 2344 422 
Q 2950 422 3222 751 
Q 3494 1081 3494 1831 
L 3494 4666 
L 4128 4666 
L 4128 1753 
Q 4128 841 3676 375 
Q 3225 -91 2344 -91 
Q 1459 -91 1007 375 
Q 556 841 556 1753 
L 556 4666 
z
" transform="scale(0.015625)"/>
        <path id="DejaVuSans-6b" d="M 581 4863 
L 1159 4863 
L 1159 1991 
L 2875 3500 
L 3609 3500 
L 1753 1863 
L 3688 0 
L 2938 0 
L 1159 1709 
L 1159 0 
L 581 0 
L 581 4863 
z
" transform="scale(0.015625)"/>
        <path id="DejaVuSans-77" d="M 269 3500 
L 844 3500 
L 1563 769 
L 2278 3500 
L 2956 3500 
L 3675 769 
L 4391 3500 
L 4966 3500 
L 4050 0 
L 3372 0 
L 2619 2869 
L 1863 0 
L 1184 0 
L 269 3500 
z
" transform="scale(0.015625)"/>
        <path id="DejaVuSans-28" d="M 1984 4856 
Q 1566 4138 1362 3434 
Q 1159 2731 1159 2009 
Q 1159 1288 1364 580 
Q 1569 -128 1984 -844 
L 1484 -844 
Q 1016 -109 783 600 
Q 550 1309 550 2009 
Q 550 2706 781 3412 
Q 1013 4119 1484 4856 
L 1984 4856 
z
" transform="scale(0.015625)"/>
        <path id="DejaVuSans-29" d="M 513 4856 
L 1013 4856 
Q 1481 4119 1714 3412 
Q 1947 2706 1947 2009 
Q 1947 1309 1714 600 
Q 1481 -109 1013 -844 
L 513 -844 
Q 928 -128 1133 580 
Q 1338 1288 1338 2009 
Q 1338 2731 1133 3434 
Q 928 4138 513 4856 
z
" transform="scale(0.015625)"/>
       </defs>
       <use xlink:href="#DejaVuSans-55"/>
       <use xlink:href="#DejaVuSans-6e" x="73.193359"/>
       <use xlink:href="#DejaVuSans-6b" x="136.572266"/>
       <use xlink:href="#DejaVuSans-6e" x="194.482422"/>
       <use xlink:href="#DejaVuSans-6f" x="257.861328"/>
       <use xlink:href="#DejaVuSans-77" x="319.042969"/>
       <use xlink:href="#DejaVuSans-6e" x="400.830078"/>
       <use xlink:href="#DejaVuSans-28" x="464.208984"/>
       <use xlink:href="#DejaVuSans-29" x="503.222656"/>
      </g>
     </g>
    </g>
    <g id="xtick_3">
     <g id="line2d_3">
      <g>
       <use xlink:href="#m06449f37c0" x="128.993969" y="264.758549" style="stroke: #000000; stroke-width: 0.8"/>
      </g>
     </g>
     <g id="text_3">
      <!-- Nudity -->
      <g transform="translate(104.341354 300.313509) rotate(-45) scale(0.1 -0.1)">
       <defs>
        <path id="DejaVuSans-4e" d="M 628 4666 
L 1478 4666 
L 3547 763 
L 3547 4666 
L 4159 4666 
L 4159 0 
L 3309 0 
L 1241 3903 
L 1241 0 
L 628 0 
L 628 4666 
z
" transform="scale(0.015625)"/>
        <path id="DejaVuSans-75" d="M 544 1381 
L 544 3500 
L 1119 3500 
L 1119 1403 
Q 1119 906 1312 657 
Q 1506 409 1894 409 
Q 2359 409 2629 706 
Q 2900 1003 2900 1516 
L 2900 3500 
L 3475 3500 
L 3475 0 
L 2900 0 
L 2900 538 
Q 2691 219 2414 64 
Q 2138 -91 1772 -91 
Q 1169 -91 856 284 
Q 544 659 544 1381 
z
M 1991 3584 
L 1991 3584 
z
" transform="scale(0.015625)"/>
        <path id="DejaVuSans-64" d="M 2906 2969 
L 2906 4863 
L 3481 4863 
L 3481 0 
L 2906 0 
L 2906 525 
Q 2725 213 2448 61 
Q 2172 -91 1784 -91 
Q 1150 -91 751 415 
Q 353 922 353 1747 
Q 353 2572 751 3078 
Q 1150 3584 1784 3584 
Q 2172 3584 2448 3432 
Q 2725 3281 2906 2969 
z
M 947 1747 
Q 947 1113 1208 752 
Q 1469 391 1925 391 
Q 2381 391 2643 752 
Q 2906 1113 2906 1747 
Q 2906 2381 2643 2742 
Q 2381 3103 1925 3103 
Q 1469 3103 1208 2742 
Q 947 2381 947 1747 
z
" transform="scale(0.015625)"/>
        <path id="DejaVuSans-69" d="M 603 3500 
L 1178 3500 
L 1178 0 
L 603 0 
L 603 3500 
z
M 603 4863 
L 1178 4863 
L 1178 4134 
L 603 4134 
L 603 4863 
z
" transform="scale(0.015625)"/>
        <path id="DejaVuSans-74" d="M 1172 4494 
L 1172 3500 
L 2356 3500 
L 2356 3053 
L 1172 3053 
L 1172 1153 
Q 1172 725 1289 603 
Q 1406 481 1766 481 
L 2356 481 
L 2356 0 
L 1766 0 
Q 1100 0 847 248 
Q 594 497 594 1153 
L 594 3053 
L 172 3053 
L 172 3500 
L 594 3500 
L 594 4494 
L 1172 4494 
z
" transform="scale(0.015625)"/>
       </defs>
       <use xlink:href="#DejaVuSans-4e"/>
       <use xlink:href="#DejaVuSans-75" x="74.804688"/>
       <use xlink:href="#DejaVuSans-64" x="138.183594"/>
       <use xlink:href="#DejaVuSans-69" x="201.660156"/>
       <use xlink:href="#DejaVuSans-74" x="229.443359"/>
       <use xlink:href="#DejaVuSans-79" x="268.652344"/>
      </g>
     </g>
    </g>
    <g id="xtick_4">
     <g id="line2d_4">
      <g>
       <use xlink:href="#m06449f37c0" x="149.077251" y="264.758549" style="stroke: #000000; stroke-width: 0.8"/>
      </g>
     </g>
     <g id="text_4">
      <!-- Business and Industry -->
      <g transform="translate(69.543206 355.194939) rotate(-45) scale(0.1 -0.1)">
       <defs>
        <path id="DejaVuSans-42" d="M 1259 2228 
L 1259 519 
L 2272 519 
Q 2781 519 3026 730 
Q 3272 941 3272 1375 
Q 3272 1813 3026 2020 
Q 2781 2228 2272 2228 
L 1259 2228 
z
M 1259 4147 
L 1259 2741 
L 2194 2741 
Q 2656 2741 2882 2914 
Q 3109 3088 3109 3444 
Q 3109 3797 2882 3972 
Q 2656 4147 2194 4147 
L 1259 4147 
z
M 628 4666 
L 2241 4666 
Q 2963 4666 3353 4366 
Q 3744 4066 3744 3513 
Q 3744 3084 3544 2831 
Q 3344 2578 2956 2516 
Q 3422 2416 3680 2098 
Q 3938 1781 3938 1306 
Q 3938 681 3513 340 
Q 3088 0 2303 0 
L 628 0 
L 628 4666 
z
" transform="scale(0.015625)"/>
        <path id="DejaVuSans-73" d="M 2834 3397 
L 2834 2853 
Q 2591 2978 2328 3040 
Q 2066 3103 1784 3103 
Q 1356 3103 1142 2972 
Q 928 2841 928 2578 
Q 928 2378 1081 2264 
Q 1234 2150 1697 2047 
L 1894 2003 
Q 2506 1872 2764 1633 
Q 3022 1394 3022 966 
Q 3022 478 2636 193 
Q 2250 -91 1575 -91 
Q 1294 -91 989 -36 
Q 684 19 347 128 
L 347 722 
Q 666 556 975 473 
Q 1284 391 1588 391 
Q 1994 391 2212 530 
Q 2431 669 2431 922 
Q 2431 1156 2273 1281 
Q 2116 1406 1581 1522 
L 1381 1569 
Q 847 1681 609 1914 
Q 372 2147 372 2553 
Q 372 3047 722 3315 
Q 1072 3584 1716 3584 
Q 2034 3584 2315 3537 
Q 2597 3491 2834 3397 
z
" transform="scale(0.015625)"/>
        <path id="DejaVuSans-65" d="M 3597 1894 
L 3597 1613 
L 953 1613 
Q 991 1019 1311 708 
Q 1631 397 2203 397 
Q 2534 397 2845 478 
Q 3156 559 3463 722 
L 3463 178 
Q 3153 47 2828 -22 
Q 2503 -91 2169 -91 
Q 1331 -91 842 396 
Q 353 884 353 1716 
Q 353 2575 817 3079 
Q 1281 3584 2069 3584 
Q 2775 3584 3186 3129 
Q 3597 2675 3597 1894 
z
M 3022 2063 
Q 3016 2534 2758 2815 
Q 2500 3097 2075 3097 
Q 1594 3097 1305 2825 
Q 1016 2553 972 2059 
L 3022 2063 
z
" transform="scale(0.015625)"/>
        <path id="DejaVuSans-20" transform="scale(0.015625)"/>
        <path id="DejaVuSans-49" d="M 628 4666 
L 1259 4666 
L 1259 0 
L 628 0 
L 628 4666 
z
" transform="scale(0.015625)"/>
       </defs>
       <use xlink:href="#DejaVuSans-42"/>
       <use xlink:href="#DejaVuSans-75" x="68.603516"/>
       <use xlink:href="#DejaVuSans-73" x="131.982422"/>
       <use xlink:href="#DejaVuSans-69" x="184.082031"/>
       <use xlink:href="#DejaVuSans-6e" x="211.865234"/>
       <use xlink:href="#DejaVuSans-65" x="275.244141"/>
       <use xlink:href="#DejaVuSans-73" x="336.767578"/>
       <use xlink:href="#DejaVuSans-73" x="388.867188"/>
       <use xlink:href="#DejaVuSans-20" x="440.966797"/>
       <use xlink:href="#DejaVuSans-61" x="472.753906"/>
       <use xlink:href="#DejaVuSans-6e" x="534.033203"/>
       <use xlink:href="#DejaVuSans-64" x="597.412109"/>
       <use xlink:href="#DejaVuSans-20" x="660.888672"/>
       <use xlink:href="#DejaVuSans-49" x="692.675781"/>
       <use xlink:href="#DejaVuSans-6e" x="722.167969"/>
       <use xlink:href="#DejaVuSans-64" x="785.546875"/>
       <use xlink:href="#DejaVuSans-75" x="849.023438"/>
       <use xlink:href="#DejaVuSans-73" x="912.402344"/>
       <use xlink:href="#DejaVuSans-74" x="964.501953"/>
       <use xlink:href="#DejaVuSans-72" x="1003.710938"/>
       <use xlink:href="#DejaVuSans-79" x="1044.824219"/>
      </g>
     </g>
    </g>
    <g id="xtick_5">
     <g id="line2d_5">
      <g>
       <use xlink:href="#m06449f37c0" x="169.160534" y="264.758549" style="stroke: #000000; stroke-width: 0.8"/>
      </g>
     </g>
     <g id="text_5">
      <!-- Business Services -->
      <g transform="translate(104.443691 340.377738) rotate(-45) scale(0.1 -0.1)">
       <defs>
        <path id="DejaVuSans-53" d="M 3425 4513 
L 3425 3897 
Q 3066 4069 2747 4153 
Q 2428 4238 2131 4238 
Q 1616 4238 1336 4038 
Q 1056 3838 1056 3469 
Q 1056 3159 1242 3001 
Q 1428 2844 1947 2747 
L 2328 2669 
Q 3034 2534 3370 2195 
Q 3706 1856 3706 1288 
Q 3706 609 3251 259 
Q 2797 -91 1919 -91 
Q 1588 -91 1214 -16 
Q 841 59 441 206 
L 441 856 
Q 825 641 1194 531 
Q 1563 422 1919 422 
Q 2459 422 2753 634 
Q 3047 847 3047 1241 
Q 3047 1584 2836 1778 
Q 2625 1972 2144 2069 
L 1759 2144 
Q 1053 2284 737 2584 
Q 422 2884 422 3419 
Q 422 4038 858 4394 
Q 1294 4750 2059 4750 
Q 2388 4750 2728 4690 
Q 3069 4631 3425 4513 
z
" transform="scale(0.015625)"/>
        <path id="DejaVuSans-76" d="M 191 3500 
L 800 3500 
L 1894 563 
L 2988 3500 
L 3597 3500 
L 2284 0 
L 1503 0 
L 191 3500 
z
" transform="scale(0.015625)"/>
        <path id="DejaVuSans-63" d="M 3122 3366 
L 3122 2828 
Q 2878 2963 2633 3030 
Q 2388 3097 2138 3097 
Q 1578 3097 1268 2742 
Q 959 2388 959 1747 
Q 959 1106 1268 751 
Q 1578 397 2138 397 
Q 2388 397 2633 464 
Q 2878 531 3122 666 
L 3122 134 
Q 2881 22 2623 -34 
Q 2366 -91 2075 -91 
Q 1284 -91 818 406 
Q 353 903 353 1747 
Q 353 2603 823 3093 
Q 1294 3584 2113 3584 
Q 2378 3584 2631 3529 
Q 2884 3475 3122 3366 
z
" transform="scale(0.015625)"/>
       </defs>
       <use xlink:href="#DejaVuSans-42"/>
       <use xlink:href="#DejaVuSans-75" x="68.603516"/>
       <use xlink:href="#DejaVuSans-73" x="131.982422"/>
       <use xlink:href="#DejaVuSans-69" x="184.082031"/>
       <use xlink:href="#DejaVuSans-6e" x="211.865234"/>
       <use xlink:href="#DejaVuSans-65" x="275.244141"/>
       <use xlink:href="#DejaVuSans-73" x="336.767578"/>
       <use xlink:href="#DejaVuSans-73" x="388.867188"/>
       <use xlink:href="#DejaVuSans-20" x="440.966797"/>
       <use xlink:href="#DejaVuSans-53" x="472.753906"/>
       <use xlink:href="#DejaVuSans-65" x="536.230469"/>
       <use xlink:href="#DejaVuSans-72" x="597.753906"/>
       <use xlink:href="#DejaVuSans-76" x="638.867188"/>
       <use xlink:href="#DejaVuSans-69" x="698.046875"/>
       <use xlink:href="#DejaVuSans-63" x="725.830078"/>
       <use xlink:href="#DejaVuSans-65" x="780.810547"/>
       <use xlink:href="#DejaVuSans-73" x="842.333984"/>
      </g>
     </g>
    </g>
    <g id="xtick_6">
     <g id="line2d_6">
      <g>
       <use xlink:href="#m06449f37c0" x="189.243816" y="264.758549" style="stroke: #000000; stroke-width: 0.8"/>
      </g>
     </g>
     <g id="text_6">
      <!-- Adult Themes -->
      <g transform="translate(139.032606 325.872105) rotate(-45) scale(0.1 -0.1)">
       <defs>
        <path id="DejaVuSans-41" d="M 2188 4044 
L 1331 1722 
L 3047 1722 
L 2188 4044 
z
M 1831 4666 
L 2547 4666 
L 4325 0 
L 3669 0 
L 3244 1197 
L 1141 1197 
L 716 0 
L 50 0 
L 1831 4666 
z
" transform="scale(0.015625)"/>
        <path id="DejaVuSans-6c" d="M 603 4863 
L 1178 4863 
L 1178 0 
L 603 0 
L 603 4863 
z
" transform="scale(0.015625)"/>
        <path id="DejaVuSans-54" d="M -19 4666 
L 3928 4666 
L 3928 4134 
L 2272 4134 
L 2272 0 
L 1638 0 
L 1638 4134 
L -19 4134 
L -19 4666 
z
" transform="scale(0.015625)"/>
        <path id="DejaVuSans-6d" d="M 3328 2828 
Q 3544 3216 3844 3400 
Q 4144 3584 4550 3584 
Q 5097 3584 5394 3201 
Q 5691 2819 5691 2113 
L 5691 0 
L 5113 0 
L 5113 2094 
Q 5113 2597 4934 2840 
Q 4756 3084 4391 3084 
Q 3944 3084 3684 2787 
Q 3425 2491 3425 1978 
L 3425 0 
L 2847 0 
L 2847 2094 
Q 2847 2600 2669 2842 
Q 2491 3084 2119 3084 
Q 1678 3084 1418 2786 
Q 1159 2488 1159 1978 
L 1159 0 
L 581 0 
L 581 3500 
L 1159 3500 
L 1159 2956 
Q 1356 3278 1631 3431 
Q 1906 3584 2284 3584 
Q 2666 3584 2933 3390 
Q 3200 3197 3328 2828 
z
" transform="scale(0.015625)"/>
       </defs>
       <use xlink:href="#DejaVuSans-41"/>
       <use xlink:href="#DejaVuSans-64" x="66.658203"/>
       <use xlink:href="#DejaVuSans-75" x="130.134766"/>
       <use xlink:href="#DejaVuSans-6c" x="193.513672"/>
       <use xlink:href="#DejaVuSans-74" x="221.296875"/>
       <use xlink:href="#DejaVuSans-20" x="260.505859"/>
       <use xlink:href="#DejaVuSans-54" x="292.292969"/>
       <use xlink:href="#DejaVuSans-68" x="353.376953"/>
       <use xlink:href="#DejaVuSans-65" x="416.755859"/>
       <use xlink:href="#DejaVuSans-6d" x="478.279297"/>
       <use xlink:href="#DejaVuSans-65" x="575.691406"/>
       <use xlink:href="#DejaVuSans-73" x="637.214844"/>
      </g>
     </g>
    </g>
    <g id="xtick_7">
     <g id="line2d_7">
      <g>
       <use xlink:href="#m06449f37c0" x="209.327099" y="264.758549" style="stroke: #000000; stroke-width: 0.8"/>
      </g>
     </g>
     <g id="text_7">
      <!-- Adult -->
      <g transform="translate(189.436406 295.551587) rotate(-45) scale(0.1 -0.1)">
       <use xlink:href="#DejaVuSans-41"/>
       <use xlink:href="#DejaVuSans-64" x="66.658203"/>
       <use xlink:href="#DejaVuSans-75" x="130.134766"/>
       <use xlink:href="#DejaVuSans-6c" x="193.513672"/>
       <use xlink:href="#DejaVuSans-74" x="221.296875"/>
      </g>
     </g>
    </g>
    <g id="xtick_8">
     <g id="line2d_8">
      <g>
       <use xlink:href="#m06449f37c0" x="229.410381" y="264.758549" style="stroke: #000000; stroke-width: 0.8"/>
      </g>
     </g>
     <g id="text_8">
      <!-- Regional Restricted Sites (Germany) -->
      <g transform="translate(99.641924 405.429352) rotate(-45) scale(0.1 -0.1)">
       <defs>
        <path id="DejaVuSans-52" d="M 2841 2188 
Q 3044 2119 3236 1894 
Q 3428 1669 3622 1275 
L 4263 0 
L 3584 0 
L 2988 1197 
Q 2756 1666 2539 1819 
Q 2322 1972 1947 1972 
L 1259 1972 
L 1259 0 
L 628 0 
L 628 4666 
L 2053 4666 
Q 2853 4666 3247 4331 
Q 3641 3997 3641 3322 
Q 3641 2881 3436 2590 
Q 3231 2300 2841 2188 
z
M 1259 4147 
L 1259 2491 
L 2053 2491 
Q 2509 2491 2742 2702 
Q 2975 2913 2975 3322 
Q 2975 3731 2742 3939 
Q 2509 4147 2053 4147 
L 1259 4147 
z
" transform="scale(0.015625)"/>
        <path id="DejaVuSans-47" d="M 3809 666 
L 3809 1919 
L 2778 1919 
L 2778 2438 
L 4434 2438 
L 4434 434 
Q 4069 175 3628 42 
Q 3188 -91 2688 -91 
Q 1594 -91 976 548 
Q 359 1188 359 2328 
Q 359 3472 976 4111 
Q 1594 4750 2688 4750 
Q 3144 4750 3555 4637 
Q 3966 4525 4313 4306 
L 4313 3634 
Q 3963 3931 3569 4081 
Q 3175 4231 2741 4231 
Q 1884 4231 1454 3753 
Q 1025 3275 1025 2328 
Q 1025 1384 1454 906 
Q 1884 428 2741 428 
Q 3075 428 3337 486 
Q 3600 544 3809 666 
z
" transform="scale(0.015625)"/>
       </defs>
       <use xlink:href="#DejaVuSans-52"/>
       <use xlink:href="#DejaVuSans-65" x="64.982422"/>
       <use xlink:href="#DejaVuSans-67" x="126.505859"/>
       <use xlink:href="#DejaVuSans-69" x="189.982422"/>
       <use xlink:href="#DejaVuSans-6f" x="217.765625"/>
       <use xlink:href="#DejaVuSans-6e" x="278.947266"/>
       <use xlink:href="#DejaVuSans-61" x="342.326172"/>
       <use xlink:href="#DejaVuSans-6c" x="403.605469"/>
       <use xlink:href="#DejaVuSans-20" x="431.388672"/>
       <use xlink:href="#DejaVuSans-52" x="463.175781"/>
       <use xlink:href="#DejaVuSans-65" x="528.158203"/>
       <use xlink:href="#DejaVuSans-73" x="589.681641"/>
       <use xlink:href="#DejaVuSans-74" x="641.78125"/>
       <use xlink:href="#DejaVuSans-72" x="680.990234"/>
       <use xlink:href="#DejaVuSans-69" x="722.103516"/>
       <use xlink:href="#DejaVuSans-63" x="749.886719"/>
       <use xlink:href="#DejaVuSans-74" x="804.867188"/>
       <use xlink:href="#DejaVuSans-65" x="844.076172"/>
       <use xlink:href="#DejaVuSans-64" x="905.599609"/>
       <use xlink:href="#DejaVuSans-20" x="969.076172"/>
       <use xlink:href="#DejaVuSans-53" x="1000.863281"/>
       <use xlink:href="#DejaVuSans-69" x="1064.339844"/>
       <use xlink:href="#DejaVuSans-74" x="1092.123047"/>
       <use xlink:href="#DejaVuSans-65" x="1131.332031"/>
       <use xlink:href="#DejaVuSans-73" x="1192.855469"/>
       <use xlink:href="#DejaVuSans-20" x="1244.955078"/>
       <use xlink:href="#DejaVuSans-28" x="1276.742188"/>
       <use xlink:href="#DejaVuSans-47" x="1315.755859"/>
       <use xlink:href="#DejaVuSans-65" x="1393.246094"/>
       <use xlink:href="#DejaVuSans-72" x="1454.769531"/>
       <use xlink:href="#DejaVuSans-6d" x="1494.132812"/>
       <use xlink:href="#DejaVuSans-61" x="1591.544922"/>
       <use xlink:href="#DejaVuSans-6e" x="1652.824219"/>
       <use xlink:href="#DejaVuSans-79" x="1716.203125"/>
       <use xlink:href="#DejaVuSans-29" x="1775.382812"/>
      </g>
     </g>
    </g>
    <g id="xtick_9">
     <g id="line2d_9">
      <g>
       <use xlink:href="#m06449f37c0" x="249.493664" y="264.758549" style="stroke: #000000; stroke-width: 0.8"/>
      </g>
     </g>
     <g id="text_9">
      <!-- Lingerie/Bikini -->
      <g transform="translate(197.872659 327.281899) rotate(-45) scale(0.1 -0.1)">
       <defs>
        <path id="DejaVuSans-4c" d="M 628 4666 
L 1259 4666 
L 1259 531 
L 3531 531 
L 3531 0 
L 628 0 
L 628 4666 
z
" transform="scale(0.015625)"/>
        <path id="DejaVuSans-2f" d="M 1625 4666 
L 2156 4666 
L 531 -594 
L 0 -594 
L 1625 4666 
z
" transform="scale(0.015625)"/>
       </defs>
       <use xlink:href="#DejaVuSans-4c"/>
       <use xlink:href="#DejaVuSans-69" x="55.712891"/>
       <use xlink:href="#DejaVuSans-6e" x="83.496094"/>
       <use xlink:href="#DejaVuSans-67" x="146.875"/>
       <use xlink:href="#DejaVuSans-65" x="210.351562"/>
       <use xlink:href="#DejaVuSans-72" x="271.875"/>
       <use xlink:href="#DejaVuSans-69" x="312.988281"/>
       <use xlink:href="#DejaVuSans-65" x="340.771484"/>
       <use xlink:href="#DejaVuSans-2f" x="402.294922"/>
       <use xlink:href="#DejaVuSans-42" x="435.986328"/>
       <use xlink:href="#DejaVuSans-69" x="504.589844"/>
       <use xlink:href="#DejaVuSans-6b" x="532.373047"/>
       <use xlink:href="#DejaVuSans-69" x="590.283203"/>
       <use xlink:href="#DejaVuSans-6e" x="618.066406"/>
       <use xlink:href="#DejaVuSans-69" x="681.445312"/>
      </g>
     </g>
    </g>
    <g id="xtick_10">
     <g id="line2d_10">
      <g>
       <use xlink:href="#m06449f37c0" x="269.576946" y="264.758549" style="stroke: #000000; stroke-width: 0.8"/>
      </g>
     </g>
     <g id="text_10">
      <!-- Ecommerce/Shopping -->
      <g transform="translate(190.719072 354.518768) rotate(-45) scale(0.1 -0.1)">
       <defs>
        <path id="DejaVuSans-45" d="M 628 4666 
L 3578 4666 
L 3578 4134 
L 1259 4134 
L 1259 2753 
L 3481 2753 
L 3481 2222 
L 1259 2222 
L 1259 531 
L 3634 531 
L 3634 0 
L 628 0 
L 628 4666 
z
" transform="scale(0.015625)"/>
       </defs>
       <use xlink:href="#DejaVuSans-45"/>
       <use xlink:href="#DejaVuSans-63" x="63.183594"/>
       <use xlink:href="#DejaVuSans-6f" x="118.164062"/>
       <use xlink:href="#DejaVuSans-6d" x="179.345703"/>
       <use xlink:href="#DejaVuSans-6d" x="276.757812"/>
       <use xlink:href="#DejaVuSans-65" x="374.169922"/>
       <use xlink:href="#DejaVuSans-72" x="435.693359"/>
       <use xlink:href="#DejaVuSans-63" x="474.556641"/>
       <use xlink:href="#DejaVuSans-65" x="529.537109"/>
       <use xlink:href="#DejaVuSans-2f" x="591.060547"/>
       <use xlink:href="#DejaVuSans-53" x="624.751953"/>
       <use xlink:href="#DejaVuSans-68" x="688.228516"/>
       <use xlink:href="#DejaVuSans-6f" x="751.607422"/>
       <use xlink:href="#DejaVuSans-70" x="812.789062"/>
       <use xlink:href="#DejaVuSans-70" x="876.265625"/>
       <use xlink:href="#DejaVuSans-69" x="939.742188"/>
       <use xlink:href="#DejaVuSans-6e" x="967.525391"/>
       <use xlink:href="#DejaVuSans-67" x="1030.904297"/>
      </g>
     </g>
    </g>
    <g id="xtick_11">
     <g id="line2d_11">
      <g>
       <use xlink:href="#m06449f37c0" x="289.660229" y="264.758549" style="stroke: #000000; stroke-width: 0.8"/>
      </g>
     </g>
     <g id="text_11">
      <!-- Software/Technology -->
      <g transform="translate(215.029527 350.291596) rotate(-45) scale(0.1 -0.1)">
       <defs>
        <path id="DejaVuSans-66" d="M 2375 4863 
L 2375 4384 
L 1825 4384 
Q 1516 4384 1395 4259 
Q 1275 4134 1275 3809 
L 1275 3500 
L 2222 3500 
L 2222 3053 
L 1275 3053 
L 1275 0 
L 697 0 
L 697 3053 
L 147 3053 
L 147 3500 
L 697 3500 
L 697 3744 
Q 697 4328 969 4595 
Q 1241 4863 1831 4863 
L 2375 4863 
z
" transform="scale(0.015625)"/>
       </defs>
       <use xlink:href="#DejaVuSans-53"/>
       <use xlink:href="#DejaVuSans-6f" x="63.476562"/>
       <use xlink:href="#DejaVuSans-66" x="124.658203"/>
       <use xlink:href="#DejaVuSans-74" x="158.113281"/>
       <use xlink:href="#DejaVuSans-77" x="197.322266"/>
       <use xlink:href="#DejaVuSans-61" x="279.109375"/>
       <use xlink:href="#DejaVuSans-72" x="340.388672"/>
       <use xlink:href="#DejaVuSans-65" x="379.251953"/>
       <use xlink:href="#DejaVuSans-2f" x="440.775391"/>
       <use xlink:href="#DejaVuSans-54" x="474.466797"/>
       <use xlink:href="#DejaVuSans-65" x="518.550781"/>
       <use xlink:href="#DejaVuSans-63" x="580.074219"/>
       <use xlink:href="#DejaVuSans-68" x="635.054688"/>
       <use xlink:href="#DejaVuSans-6e" x="698.433594"/>
       <use xlink:href="#DejaVuSans-6f" x="761.8125"/>
       <use xlink:href="#DejaVuSans-6c" x="822.994141"/>
       <use xlink:href="#DejaVuSans-6f" x="850.777344"/>
       <use xlink:href="#DejaVuSans-67" x="911.958984"/>
       <use xlink:href="#DejaVuSans-79" x="975.435547"/>
      </g>
     </g>
    </g>
    <g id="xtick_12">
     <g id="line2d_12">
      <g>
       <use xlink:href="#m06449f37c0" x="309.743511" y="264.758549" style="stroke: #000000; stroke-width: 0.8"/>
      </g>
     </g>
     <g id="text_12">
      <!-- Advertisements -->
      <g transform="translate(252.681099 332.723307) rotate(-45) scale(0.1 -0.1)">
       <use xlink:href="#DejaVuSans-41"/>
       <use xlink:href="#DejaVuSans-64" x="66.658203"/>
       <use xlink:href="#DejaVuSans-76" x="130.134766"/>
       <use xlink:href="#DejaVuSans-65" x="189.314453"/>
       <use xlink:href="#DejaVuSans-72" x="250.837891"/>
       <use xlink:href="#DejaVuSans-74" x="291.951172"/>
       <use xlink:href="#DejaVuSans-69" x="331.160156"/>
       <use xlink:href="#DejaVuSans-73" x="358.943359"/>
       <use xlink:href="#DejaVuSans-65" x="411.042969"/>
       <use xlink:href="#DejaVuSans-6d" x="472.566406"/>
       <use xlink:href="#DejaVuSans-65" x="569.978516"/>
       <use xlink:href="#DejaVuSans-6e" x="631.501953"/>
       <use xlink:href="#DejaVuSans-74" x="694.880859"/>
       <use xlink:href="#DejaVuSans-73" x="734.089844"/>
      </g>
     </g>
    </g>
    <g id="xtick_13">
     <g id="line2d_13">
      <g>
       <use xlink:href="#m06449f37c0" x="329.826794" y="264.758549" style="stroke: #000000; stroke-width: 0.8"/>
      </g>
     </g>
     <g id="text_13">
      <!-- Computers and Internet -->
      <g transform="translate(243.64484 361.842848) rotate(-45) scale(0.1 -0.1)">
       <defs>
        <path id="DejaVuSans-43" d="M 4122 4306 
L 4122 3641 
Q 3803 3938 3442 4084 
Q 3081 4231 2675 4231 
Q 1875 4231 1450 3742 
Q 1025 3253 1025 2328 
Q 1025 1406 1450 917 
Q 1875 428 2675 428 
Q 3081 428 3442 575 
Q 3803 722 4122 1019 
L 4122 359 
Q 3791 134 3420 21 
Q 3050 -91 2638 -91 
Q 1578 -91 968 557 
Q 359 1206 359 2328 
Q 359 3453 968 4101 
Q 1578 4750 2638 4750 
Q 3056 4750 3426 4639 
Q 3797 4528 4122 4306 
z
" transform="scale(0.015625)"/>
       </defs>
       <use xlink:href="#DejaVuSans-43"/>
       <use xlink:href="#DejaVuSans-6f" x="69.824219"/>
       <use xlink:href="#DejaVuSans-6d" x="131.005859"/>
       <use xlink:href="#DejaVuSans-70" x="228.417969"/>
       <use xlink:href="#DejaVuSans-75" x="291.894531"/>
       <use xlink:href="#DejaVuSans-74" x="355.273438"/>
       <use xlink:href="#DejaVuSans-65" x="394.482422"/>
       <use xlink:href="#DejaVuSans-72" x="456.005859"/>
       <use xlink:href="#DejaVuSans-73" x="497.119141"/>
       <use xlink:href="#DejaVuSans-20" x="549.21875"/>
       <use xlink:href="#DejaVuSans-61" x="581.005859"/>
       <use xlink:href="#DejaVuSans-6e" x="642.285156"/>
       <use xlink:href="#DejaVuSans-64" x="705.664062"/>
       <use xlink:href="#DejaVuSans-20" x="769.140625"/>
       <use xlink:href="#DejaVuSans-49" x="800.927734"/>
       <use xlink:href="#DejaVuSans-6e" x="830.419922"/>
       <use xlink:href="#DejaVuSans-74" x="893.798828"/>
       <use xlink:href="#DejaVuSans-65" x="933.007812"/>
       <use xlink:href="#DejaVuSans-72" x="994.53125"/>
       <use xlink:href="#DejaVuSans-6e" x="1033.894531"/>
       <use xlink:href="#DejaVuSans-65" x="1097.273438"/>
       <use xlink:href="#DejaVuSans-74" x="1158.796875"/>
      </g>
     </g>
    </g>
    <g id="xtick_14">
     <g id="line2d_14">
      <g>
       <use xlink:href="#m06449f37c0" x="349.910076" y="264.758549" style="stroke: #000000; stroke-width: 0.8"/>
      </g>
     </g>
     <g id="text_14">
      <!-- Tasteless -->
      <g transform="translate(316.46503 309.10594) rotate(-45) scale(0.1 -0.1)">
       <use xlink:href="#DejaVuSans-54"/>
       <use xlink:href="#DejaVuSans-61" x="44.583984"/>
       <use xlink:href="#DejaVuSans-73" x="105.863281"/>
       <use xlink:href="#DejaVuSans-74" x="157.962891"/>
       <use xlink:href="#DejaVuSans-65" x="197.171875"/>
       <use xlink:href="#DejaVuSans-6c" x="258.695312"/>
       <use xlink:href="#DejaVuSans-65" x="286.478516"/>
       <use xlink:href="#DejaVuSans-73" x="348.001953"/>
       <use xlink:href="#DejaVuSans-73" x="400.101562"/>
      </g>
     </g>
    </g>
    <g id="xtick_15">
     <g id="line2d_15">
      <g>
       <use xlink:href="#m06449f37c0" x="369.993359" y="264.758549" style="stroke: #000000; stroke-width: 0.8"/>
      </g>
     </g>
     <g id="text_15">
      <!-- Shopping -->
      <g transform="translate(335.313086 310.341167) rotate(-45) scale(0.1 -0.1)">
       <use xlink:href="#DejaVuSans-53"/>
       <use xlink:href="#DejaVuSans-68" x="63.476562"/>
       <use xlink:href="#DejaVuSans-6f" x="126.855469"/>
       <use xlink:href="#DejaVuSans-70" x="188.037109"/>
       <use xlink:href="#DejaVuSans-70" x="251.513672"/>
       <use xlink:href="#DejaVuSans-69" x="314.990234"/>
       <use xlink:href="#DejaVuSans-6e" x="342.773438"/>
       <use xlink:href="#DejaVuSans-67" x="406.152344"/>
      </g>
     </g>
    </g>
    <g id="xtick_16">
     <g id="line2d_16">
      <g>
       <use xlink:href="#m06449f37c0" x="390.076641" y="264.758549" style="stroke: #000000; stroke-width: 0.8"/>
      </g>
     </g>
     <g id="text_16">
      <!-- Games -->
      <g transform="translate(363.871706 301.86583) rotate(-45) scale(0.1 -0.1)">
       <use xlink:href="#DejaVuSans-47"/>
       <use xlink:href="#DejaVuSans-61" x="77.490234"/>
       <use xlink:href="#DejaVuSans-6d" x="138.769531"/>
       <use xlink:href="#DejaVuSans-65" x="236.181641"/>
       <use xlink:href="#DejaVuSans-73" x="297.705078"/>
      </g>
     </g>
    </g>
    <g id="xtick_17">
     <g id="line2d_17">
      <g>
       <use xlink:href="#m06449f37c0" x="410.159924" y="264.758549" style="stroke: #000000; stroke-width: 0.8"/>
      </g>
     </g>
     <g id="text_17">
      <!-- Sexuality -->
      <g transform="translate(376.087321 309.733498) rotate(-45) scale(0.1 -0.1)">
       <defs>
        <path id="DejaVuSans-78" d="M 3513 3500 
L 2247 1797 
L 3578 0 
L 2900 0 
L 1881 1375 
L 863 0 
L 184 0 
L 1544 1831 
L 300 3500 
L 978 3500 
L 1906 2253 
L 2834 3500 
L 3513 3500 
z
" transform="scale(0.015625)"/>
       </defs>
       <use xlink:href="#DejaVuSans-53"/>
       <use xlink:href="#DejaVuSans-65" x="63.476562"/>
       <use xlink:href="#DejaVuSans-78" x="123.25"/>
       <use xlink:href="#DejaVuSans-75" x="182.429688"/>
       <use xlink:href="#DejaVuSans-61" x="245.808594"/>
       <use xlink:href="#DejaVuSans-6c" x="307.087891"/>
       <use xlink:href="#DejaVuSans-69" x="334.871094"/>
       <use xlink:href="#DejaVuSans-74" x="362.654297"/>
       <use xlink:href="#DejaVuSans-79" x="401.863281"/>
      </g>
     </g>
    </g>
    <g id="xtick_18">
     <g id="line2d_18">
      <g>
       <use xlink:href="#m06449f37c0" x="430.243206" y="264.758549" style="stroke: #000000; stroke-width: 0.8"/>
      </g>
     </g>
     <g id="text_18">
      <!-- Extreme -->
      <g transform="translate(399.010079 306.894022) rotate(-45) scale(0.1 -0.1)">
       <use xlink:href="#DejaVuSans-45"/>
       <use xlink:href="#DejaVuSans-78" x="63.183594"/>
       <use xlink:href="#DejaVuSans-74" x="122.363281"/>
       <use xlink:href="#DejaVuSans-72" x="161.572266"/>
       <use xlink:href="#DejaVuSans-65" x="200.435547"/>
       <use xlink:href="#DejaVuSans-6d" x="261.958984"/>
       <use xlink:href="#DejaVuSans-65" x="359.371094"/>
      </g>
     </g>
    </g>
    <g id="xtick_19">
     <g id="line2d_19">
      <g>
       <use xlink:href="#m06449f37c0" x="450.326489" y="264.758549" style="stroke: #000000; stroke-width: 0.8"/>
      </g>
     </g>
     <g id="text_19">
      <!-- News/Media -->
      <g transform="translate(406.127895 319.859488) rotate(-45) scale(0.1 -0.1)">
       <defs>
        <path id="DejaVuSans-4d" d="M 628 4666 
L 1569 4666 
L 2759 1491 
L 3956 4666 
L 4897 4666 
L 4897 0 
L 4281 0 
L 4281 4097 
L 3078 897 
L 2444 897 
L 1241 4097 
L 1241 0 
L 628 0 
L 628 4666 
z
" transform="scale(0.015625)"/>
       </defs>
       <use xlink:href="#DejaVuSans-4e"/>
       <use xlink:href="#DejaVuSans-65" x="74.804688"/>
       <use xlink:href="#DejaVuSans-77" x="136.328125"/>
       <use xlink:href="#DejaVuSans-73" x="218.115234"/>
       <use xlink:href="#DejaVuSans-2f" x="270.214844"/>
       <use xlink:href="#DejaVuSans-4d" x="303.90625"/>
       <use xlink:href="#DejaVuSans-65" x="390.185547"/>
       <use xlink:href="#DejaVuSans-64" x="451.708984"/>
       <use xlink:href="#DejaVuSans-69" x="515.185547"/>
       <use xlink:href="#DejaVuSans-61" x="542.96875"/>
      </g>
     </g>
    </g>
    <g id="xtick_20">
     <g id="line2d_20">
      <g>
       <use xlink:href="#m06449f37c0" x="470.409771" y="264.758549" style="stroke: #000000; stroke-width: 0.8"/>
      </g>
     </g>
     <g id="text_20">
      <!-- Health and Medicine -->
      <g transform="translate(396.331497 349.739169) rotate(-45) scale(0.1 -0.1)">
       <defs>
        <path id="DejaVuSans-48" d="M 628 4666 
L 1259 4666 
L 1259 2753 
L 3553 2753 
L 3553 4666 
L 4184 4666 
L 4184 0 
L 3553 0 
L 3553 2222 
L 1259 2222 
L 1259 0 
L 628 0 
L 628 4666 
z
" transform="scale(0.015625)"/>
       </defs>
       <use xlink:href="#DejaVuSans-48"/>
       <use xlink:href="#DejaVuSans-65" x="75.195312"/>
       <use xlink:href="#DejaVuSans-61" x="136.71875"/>
       <use xlink:href="#DejaVuSans-6c" x="197.998047"/>
       <use xlink:href="#DejaVuSans-74" x="225.78125"/>
       <use xlink:href="#DejaVuSans-68" x="264.990234"/>
       <use xlink:href="#DejaVuSans-20" x="328.369141"/>
       <use xlink:href="#DejaVuSans-61" x="360.15625"/>
       <use xlink:href="#DejaVuSans-6e" x="421.435547"/>
       <use xlink:href="#DejaVuSans-64" x="484.814453"/>
       <use xlink:href="#DejaVuSans-20" x="548.291016"/>
       <use xlink:href="#DejaVuSans-4d" x="580.078125"/>
       <use xlink:href="#DejaVuSans-65" x="666.357422"/>
       <use xlink:href="#DejaVuSans-64" x="727.880859"/>
       <use xlink:href="#DejaVuSans-69" x="791.357422"/>
       <use xlink:href="#DejaVuSans-63" x="819.140625"/>
       <use xlink:href="#DejaVuSans-69" x="874.121094"/>
       <use xlink:href="#DejaVuSans-6e" x="901.904297"/>
       <use xlink:href="#DejaVuSans-65" x="965.283203"/>
      </g>
     </g>
    </g>
    <g id="xtick_21">
     <g id="line2d_21">
      <g>
       <use xlink:href="#m06449f37c0" x="490.493054" y="264.758549" style="stroke: #000000; stroke-width: 0.8"/>
      </g>
     </g>
     <g id="text_21">
      <!-- Not Actionable -->
      <g transform="translate(437.103177 329.050771) rotate(-45) scale(0.1 -0.1)">
       <defs>
        <path id="DejaVuSans-62" d="M 3116 1747 
Q 3116 2381 2855 2742 
Q 2594 3103 2138 3103 
Q 1681 3103 1420 2742 
Q 1159 2381 1159 1747 
Q 1159 1113 1420 752 
Q 1681 391 2138 391 
Q 2594 391 2855 752 
Q 3116 1113 3116 1747 
z
M 1159 2969 
Q 1341 3281 1617 3432 
Q 1894 3584 2278 3584 
Q 2916 3584 3314 3078 
Q 3713 2572 3713 1747 
Q 3713 922 3314 415 
Q 2916 -91 2278 -91 
Q 1894 -91 1617 61 
Q 1341 213 1159 525 
L 1159 0 
L 581 0 
L 581 4863 
L 1159 4863 
L 1159 2969 
z
" transform="scale(0.015625)"/>
       </defs>
       <use xlink:href="#DejaVuSans-4e"/>
       <use xlink:href="#DejaVuSans-6f" x="74.804688"/>
       <use xlink:href="#DejaVuSans-74" x="135.986328"/>
       <use xlink:href="#DejaVuSans-20" x="175.195312"/>
       <use xlink:href="#DejaVuSans-41" x="206.982422"/>
       <use xlink:href="#DejaVuSans-63" x="273.640625"/>
       <use xlink:href="#DejaVuSans-74" x="328.621094"/>
       <use xlink:href="#DejaVuSans-69" x="367.830078"/>
       <use xlink:href="#DejaVuSans-6f" x="395.613281"/>
       <use xlink:href="#DejaVuSans-6e" x="456.794922"/>
       <use xlink:href="#DejaVuSans-61" x="520.173828"/>
       <use xlink:href="#DejaVuSans-62" x="581.453125"/>
       <use xlink:href="#DejaVuSans-6c" x="644.929688"/>
       <use xlink:href="#DejaVuSans-65" x="672.712891"/>
      </g>
     </g>
    </g>
    <g id="xtick_22">
     <g id="line2d_22">
      <g>
       <use xlink:href="#m06449f37c0" x="510.576336" y="264.758549" style="stroke: #000000; stroke-width: 0.8"/>
      </g>
     </g>
     <g id="text_22">
      <!-- Entertainment -->
      <g transform="translate(458.083601 328.153629) rotate(-45) scale(0.1 -0.1)">
       <use xlink:href="#DejaVuSans-45"/>
       <use xlink:href="#DejaVuSans-6e" x="63.183594"/>
       <use xlink:href="#DejaVuSans-74" x="126.5625"/>
       <use xlink:href="#DejaVuSans-65" x="165.771484"/>
       <use xlink:href="#DejaVuSans-72" x="227.294922"/>
       <use xlink:href="#DejaVuSans-74" x="268.408203"/>
       <use xlink:href="#DejaVuSans-61" x="307.617188"/>
       <use xlink:href="#DejaVuSans-69" x="368.896484"/>
       <use xlink:href="#DejaVuSans-6e" x="396.679688"/>
       <use xlink:href="#DejaVuSans-6d" x="460.058594"/>
       <use xlink:href="#DejaVuSans-65" x="557.470703"/>
       <use xlink:href="#DejaVuSans-6e" x="618.994141"/>
       <use xlink:href="#DejaVuSans-74" x="682.373047"/>
      </g>
     </g>
    </g>
    <g id="xtick_23">
     <g id="line2d_23">
      <g>
       <use xlink:href="#m06449f37c0" x="530.659619" y="264.758549" style="stroke: #000000; stroke-width: 0.8"/>
      </g>
     </g>
     <g id="text_23">
      <!-- Infrastructure -->
      <g transform="translate(480.808591 325.511922) rotate(-45) scale(0.1 -0.1)">
       <use xlink:href="#DejaVuSans-49"/>
       <use xlink:href="#DejaVuSans-6e" x="29.492188"/>
       <use xlink:href="#DejaVuSans-66" x="92.871094"/>
       <use xlink:href="#DejaVuSans-72" x="128.076172"/>
       <use xlink:href="#DejaVuSans-61" x="169.189453"/>
       <use xlink:href="#DejaVuSans-73" x="230.46875"/>
       <use xlink:href="#DejaVuSans-74" x="282.568359"/>
       <use xlink:href="#DejaVuSans-72" x="321.777344"/>
       <use xlink:href="#DejaVuSans-75" x="362.890625"/>
       <use xlink:href="#DejaVuSans-63" x="426.269531"/>
       <use xlink:href="#DejaVuSans-74" x="481.25"/>
       <use xlink:href="#DejaVuSans-75" x="520.458984"/>
       <use xlink:href="#DejaVuSans-72" x="583.837891"/>
       <use xlink:href="#DejaVuSans-65" x="622.701172"/>
      </g>
     </g>
    </g>
    <g id="xtick_24">
     <g id="line2d_24">
      <g>
       <use xlink:href="#m06449f37c0" x="550.742901" y="264.758549" style="stroke: #000000; stroke-width: 0.8"/>
      </g>
     </g>
     <g id="text_24">
      <!-- Dating -->
      <g transform="translate(525.787556 300.61624) rotate(-45) scale(0.1 -0.1)">
       <defs>
        <path id="DejaVuSans-44" d="M 1259 4147 
L 1259 519 
L 2022 519 
Q 2988 519 3436 956 
Q 3884 1394 3884 2338 
Q 3884 3275 3436 3711 
Q 2988 4147 2022 4147 
L 1259 4147 
z
M 628 4666 
L 1925 4666 
Q 3281 4666 3915 4102 
Q 4550 3538 4550 2338 
Q 4550 1131 3912 565 
Q 3275 0 1925 0 
L 628 0 
L 628 4666 
z
" transform="scale(0.015625)"/>
       </defs>
       <use xlink:href="#DejaVuSans-44"/>
       <use xlink:href="#DejaVuSans-61" x="77.001953"/>
       <use xlink:href="#DejaVuSans-74" x="138.28125"/>
       <use xlink:href="#DejaVuSans-69" x="177.490234"/>
       <use xlink:href="#DejaVuSans-6e" x="205.273438"/>
       <use xlink:href="#DejaVuSans-67" x="268.652344"/>
      </g>
     </g>
    </g>
    <g id="xtick_25">
     <g id="line2d_25">
      <g>
       <use xlink:href="#m06449f37c0" x="570.826184" y="264.758549" style="stroke: #000000; stroke-width: 0.8"/>
      </g>
     </g>
     <g id="text_25">
      <!-- News -->
      <g transform="translate(550.248271 296.238807) rotate(-45) scale(0.1 -0.1)">
       <use xlink:href="#DejaVuSans-4e"/>
       <use xlink:href="#DejaVuSans-65" x="74.804688"/>
       <use xlink:href="#DejaVuSans-77" x="136.328125"/>
       <use xlink:href="#DejaVuSans-73" x="218.115234"/>
      </g>
     </g>
    </g>
    <g id="xtick_26">
     <g id="line2d_26">
      <g>
       <use xlink:href="#m06449f37c0" x="590.909466" y="264.758549" style="stroke: #000000; stroke-width: 0.8"/>
      </g>
     </g>
     <g id="text_26">
      <!-- Parked Domains -->
      <g transform="translate(532.206345 334.364016) rotate(-45) scale(0.1 -0.1)">
       <use xlink:href="#DejaVuSans-50"/>
       <use xlink:href="#DejaVuSans-61" x="55.802734"/>
       <use xlink:href="#DejaVuSans-72" x="117.082031"/>
       <use xlink:href="#DejaVuSans-6b" x="158.195312"/>
       <use xlink:href="#DejaVuSans-65" x="212.480469"/>
       <use xlink:href="#DejaVuSans-64" x="274.003906"/>
       <use xlink:href="#DejaVuSans-20" x="337.480469"/>
       <use xlink:href="#DejaVuSans-44" x="369.267578"/>
       <use xlink:href="#DejaVuSans-6f" x="446.269531"/>
       <use xlink:href="#DejaVuSans-6d" x="507.451172"/>
       <use xlink:href="#DejaVuSans-61" x="604.863281"/>
       <use xlink:href="#DejaVuSans-69" x="666.142578"/>
       <use xlink:href="#DejaVuSans-6e" x="693.925781"/>
       <use xlink:href="#DejaVuSans-73" x="757.304688"/>
      </g>
     </g>
    </g>
    <g id="xtick_27">
     <g id="line2d_27">
      <g>
       <use xlink:href="#m06449f37c0" x="610.992749" y="264.758549" style="stroke: #000000; stroke-width: 0.8"/>
      </g>
     </g>
     <g id="text_27">
      <!-- Government -->
      <g transform="translate(565.424136 321.229507) rotate(-45) scale(0.1 -0.1)">
       <use xlink:href="#DejaVuSans-47"/>
       <use xlink:href="#DejaVuSans-6f" x="77.490234"/>
       <use xlink:href="#DejaVuSans-76" x="138.671875"/>
       <use xlink:href="#DejaVuSans-65" x="197.851562"/>
       <use xlink:href="#DejaVuSans-72" x="259.375"/>
       <use xlink:href="#DejaVuSans-6e" x="298.738281"/>
       <use xlink:href="#DejaVuSans-6d" x="362.117188"/>
       <use xlink:href="#DejaVuSans-65" x="459.529297"/>
       <use xlink:href="#DejaVuSans-6e" x="521.052734"/>
       <use xlink:href="#DejaVuSans-74" x="584.431641"/>
      </g>
     </g>
    </g>
    <g id="xtick_28">
     <g id="line2d_28">
      <g>
       <use xlink:href="#m06449f37c0" x="631.076031" y="264.758549" style="stroke: #000000; stroke-width: 0.8"/>
      </g>
     </g>
     <g id="text_28">
      <!-- Chat -->
      <g transform="translate(613.081268 293.655657) rotate(-45) scale(0.1 -0.1)">
       <use xlink:href="#DejaVuSans-43"/>
       <use xlink:href="#DejaVuSans-68" x="69.824219"/>
       <use xlink:href="#DejaVuSans-61" x="133.203125"/>
       <use xlink:href="#DejaVuSans-74" x="194.482422"/>
      </g>
     </g>
    </g>
    <g id="xtick_29">
     <g id="line2d_29">
      <g>
       <use xlink:href="#m06449f37c0" x="651.159314" y="264.758549" style="stroke: #000000; stroke-width: 0.8"/>
      </g>
     </g>
     <g id="text_29">
      <!-- Visual Search Engines -->
      <g transform="translate(571.88049 354.939718) rotate(-45) scale(0.1 -0.1)">
       <defs>
        <path id="DejaVuSans-56" d="M 1831 0 
L 50 4666 
L 709 4666 
L 2188 738 
L 3669 4666 
L 4325 4666 
L 2547 0 
L 1831 0 
z
" transform="scale(0.015625)"/>
       </defs>
       <use xlink:href="#DejaVuSans-56"/>
       <use xlink:href="#DejaVuSans-69" x="66.158203"/>
       <use xlink:href="#DejaVuSans-73" x="93.941406"/>
       <use xlink:href="#DejaVuSans-75" x="146.041016"/>
       <use xlink:href="#DejaVuSans-61" x="209.419922"/>
       <use xlink:href="#DejaVuSans-6c" x="270.699219"/>
       <use xlink:href="#DejaVuSans-20" x="298.482422"/>
       <use xlink:href="#DejaVuSans-53" x="330.269531"/>
       <use xlink:href="#DejaVuSans-65" x="393.746094"/>
       <use xlink:href="#DejaVuSans-61" x="455.269531"/>
       <use xlink:href="#DejaVuSans-72" x="516.548828"/>
       <use xlink:href="#DejaVuSans-63" x="555.412109"/>
       <use xlink:href="#DejaVuSans-68" x="610.392578"/>
       <use xlink:href="#DejaVuSans-20" x="673.771484"/>
       <use xlink:href="#DejaVuSans-45" x="705.558594"/>
       <use xlink:href="#DejaVuSans-6e" x="768.742188"/>
       <use xlink:href="#DejaVuSans-67" x="832.121094"/>
       <use xlink:href="#DejaVuSans-69" x="895.597656"/>
       <use xlink:href="#DejaVuSans-6e" x="923.380859"/>
       <use xlink:href="#DejaVuSans-65" x="986.759766"/>
       <use xlink:href="#DejaVuSans-73" x="1048.283203"/>
      </g>
     </g>
    </g>
    <g id="xtick_30">
     <g id="line2d_30">
      <g>
       <use xlink:href="#m06449f37c0" x="671.242596" y="264.758549" style="stroke: #000000; stroke-width: 0.8"/>
      </g>
     </g>
     <g id="text_30">
      <!-- Photo Search and Images -->
      <g transform="translate(579.435829 367.467661) rotate(-45) scale(0.1 -0.1)">
       <use xlink:href="#DejaVuSans-50"/>
       <use xlink:href="#DejaVuSans-68" x="60.302734"/>
       <use xlink:href="#DejaVuSans-6f" x="123.681641"/>
       <use xlink:href="#DejaVuSans-74" x="184.863281"/>
       <use xlink:href="#DejaVuSans-6f" x="224.072266"/>
       <use xlink:href="#DejaVuSans-20" x="285.253906"/>
       <use xlink:href="#DejaVuSans-53" x="317.041016"/>
       <use xlink:href="#DejaVuSans-65" x="380.517578"/>
       <use xlink:href="#DejaVuSans-61" x="442.041016"/>
       <use xlink:href="#DejaVuSans-72" x="503.320312"/>
       <use xlink:href="#DejaVuSans-63" x="542.183594"/>
       <use xlink:href="#DejaVuSans-68" x="597.164062"/>
       <use xlink:href="#DejaVuSans-20" x="660.542969"/>
       <use xlink:href="#DejaVuSans-61" x="692.330078"/>
       <use xlink:href="#DejaVuSans-6e" x="753.609375"/>
       <use xlink:href="#DejaVuSans-64" x="816.988281"/>
       <use xlink:href="#DejaVuSans-20" x="880.464844"/>
       <use xlink:href="#DejaVuSans-49" x="912.251953"/>
       <use xlink:href="#DejaVuSans-6d" x="941.744141"/>
       <use xlink:href="#DejaVuSans-61" x="1039.15625"/>
       <use xlink:href="#DejaVuSans-67" x="1100.435547"/>
       <use xlink:href="#DejaVuSans-65" x="1163.912109"/>
       <use xlink:href="#DejaVuSans-73" x="1225.435547"/>
      </g>
     </g>
    </g>
    <g id="text_31">
     <!-- Domain Classes -->
     <g transform="translate(340.209219 418.498351) scale(0.1 -0.1)">
      <use xlink:href="#DejaVuSans-44"/>
      <use xlink:href="#DejaVuSans-6f" x="77.001953"/>
      <use xlink:href="#DejaVuSans-6d" x="138.183594"/>
      <use xlink:href="#DejaVuSans-61" x="235.595703"/>
      <use xlink:href="#DejaVuSans-69" x="296.875"/>
      <use xlink:href="#DejaVuSans-6e" x="324.658203"/>
      <use xlink:href="#DejaVuSans-20" x="388.037109"/>
      <use xlink:href="#DejaVuSans-43" x="419.824219"/>
      <use xlink:href="#DejaVuSans-6c" x="489.648438"/>
      <use xlink:href="#DejaVuSans-61" x="517.431641"/>
      <use xlink:href="#DejaVuSans-73" x="578.710938"/>
      <use xlink:href="#DejaVuSans-73" x="630.810547"/>
      <use xlink:href="#DejaVuSans-65" x="682.910156"/>
      <use xlink:href="#DejaVuSans-73" x="744.433594"/>
     </g>
    </g>
   </g>
   <g id="matplotlib.axis_2">
    <g id="ytick_1">
     <g id="line2d_31">
      <defs>
       <path id="m05c270fb7c" d="M 0 0 
L -3.5 0 
" style="stroke: #000000; stroke-width: 0.8"/>
      </defs>
      <g>
       <use xlink:href="#m05c270fb7c" x="50.87" y="264.758549" style="stroke: #000000; stroke-width: 0.8"/>
      </g>
     </g>
     <g id="text_32">
      <!-- 0 -->
      <g transform="translate(37.5075 268.557768) scale(0.1 -0.1)">
       <defs>
        <path id="DejaVuSans-30" d="M 2034 4250 
Q 1547 4250 1301 3770 
Q 1056 3291 1056 2328 
Q 1056 1369 1301 889 
Q 1547 409 2034 409 
Q 2525 409 2770 889 
Q 3016 1369 3016 2328 
Q 3016 3291 2770 3770 
Q 2525 4250 2034 4250 
z
M 2034 4750 
Q 2819 4750 3233 4129 
Q 3647 3509 3647 2328 
Q 3647 1150 3233 529 
Q 2819 -91 2034 -91 
Q 1250 -91 836 529 
Q 422 1150 422 2328 
Q 422 3509 836 4129 
Q 1250 4750 2034 4750 
z
" transform="scale(0.015625)"/>
       </defs>
       <use xlink:href="#DejaVuSans-30"/>
      </g>
     </g>
    </g>
    <g id="ytick_2">
     <g id="line2d_32">
      <g>
       <use xlink:href="#m05c270fb7c" x="50.87" y="215.076312" style="stroke: #000000; stroke-width: 0.8"/>
      </g>
     </g>
     <g id="text_33">
      <!-- 100 -->
      <g transform="translate(24.7825 218.875531) scale(0.1 -0.1)">
       <defs>
        <path id="DejaVuSans-31" d="M 794 531 
L 1825 531 
L 1825 4091 
L 703 3866 
L 703 4441 
L 1819 4666 
L 2450 4666 
L 2450 531 
L 3481 531 
L 3481 0 
L 794 0 
L 794 531 
z
" transform="scale(0.015625)"/>
       </defs>
       <use xlink:href="#DejaVuSans-31"/>
       <use xlink:href="#DejaVuSans-30" x="63.623047"/>
       <use xlink:href="#DejaVuSans-30" x="127.246094"/>
      </g>
     </g>
    </g>
    <g id="ytick_3">
     <g id="line2d_33">
      <g>
       <use xlink:href="#m05c270fb7c" x="50.87" y="165.394076" style="stroke: #000000; stroke-width: 0.8"/>
      </g>
     </g>
     <g id="text_34">
      <!-- 200 -->
      <g transform="translate(24.7825 169.193294) scale(0.1 -0.1)">
       <defs>
        <path id="DejaVuSans-32" d="M 1228 531 
L 3431 531 
L 3431 0 
L 469 0 
L 469 531 
Q 828 903 1448 1529 
Q 2069 2156 2228 2338 
Q 2531 2678 2651 2914 
Q 2772 3150 2772 3378 
Q 2772 3750 2511 3984 
Q 2250 4219 1831 4219 
Q 1534 4219 1204 4116 
Q 875 4013 500 3803 
L 500 4441 
Q 881 4594 1212 4672 
Q 1544 4750 1819 4750 
Q 2544 4750 2975 4387 
Q 3406 4025 3406 3419 
Q 3406 3131 3298 2873 
Q 3191 2616 2906 2266 
Q 2828 2175 2409 1742 
Q 1991 1309 1228 531 
z
" transform="scale(0.015625)"/>
       </defs>
       <use xlink:href="#DejaVuSans-32"/>
       <use xlink:href="#DejaVuSans-30" x="63.623047"/>
       <use xlink:href="#DejaVuSans-30" x="127.246094"/>
      </g>
     </g>
    </g>
    <g id="ytick_4">
     <g id="line2d_34">
      <g>
       <use xlink:href="#m05c270fb7c" x="50.87" y="115.711839" style="stroke: #000000; stroke-width: 0.8"/>
      </g>
     </g>
     <g id="text_35">
      <!-- 300 -->
      <g transform="translate(24.7825 119.511058) scale(0.1 -0.1)">
       <defs>
        <path id="DejaVuSans-33" d="M 2597 2516 
Q 3050 2419 3304 2112 
Q 3559 1806 3559 1356 
Q 3559 666 3084 287 
Q 2609 -91 1734 -91 
Q 1441 -91 1130 -33 
Q 819 25 488 141 
L 488 750 
Q 750 597 1062 519 
Q 1375 441 1716 441 
Q 2309 441 2620 675 
Q 2931 909 2931 1356 
Q 2931 1769 2642 2001 
Q 2353 2234 1838 2234 
L 1294 2234 
L 1294 2753 
L 1863 2753 
Q 2328 2753 2575 2939 
Q 2822 3125 2822 3475 
Q 2822 3834 2567 4026 
Q 2313 4219 1838 4219 
Q 1578 4219 1281 4162 
Q 984 4106 628 3988 
L 628 4550 
Q 988 4650 1302 4700 
Q 1616 4750 1894 4750 
Q 2613 4750 3031 4423 
Q 3450 4097 3450 3541 
Q 3450 3153 3228 2886 
Q 3006 2619 2597 2516 
z
" transform="scale(0.015625)"/>
       </defs>
       <use xlink:href="#DejaVuSans-33"/>
       <use xlink:href="#DejaVuSans-30" x="63.623047"/>
       <use xlink:href="#DejaVuSans-30" x="127.246094"/>
      </g>
     </g>
    </g>
    <g id="ytick_5">
     <g id="line2d_35">
      <g>
       <use xlink:href="#m05c270fb7c" x="50.87" y="66.029602" style="stroke: #000000; stroke-width: 0.8"/>
      </g>
     </g>
     <g id="text_36">
      <!-- 400 -->
      <g transform="translate(24.7825 69.828821) scale(0.1 -0.1)">
       <defs>
        <path id="DejaVuSans-34" d="M 2419 4116 
L 825 1625 
L 2419 1625 
L 2419 4116 
z
M 2253 4666 
L 3047 4666 
L 3047 1625 
L 3713 1625 
L 3713 1100 
L 3047 1100 
L 3047 0 
L 2419 0 
L 2419 1100 
L 313 1100 
L 313 1709 
L 2253 4666 
z
" transform="scale(0.015625)"/>
       </defs>
       <use xlink:href="#DejaVuSans-34"/>
       <use xlink:href="#DejaVuSans-30" x="63.623047"/>
       <use xlink:href="#DejaVuSans-30" x="127.246094"/>
      </g>
     </g>
    </g>
    <g id="text_37">
     <!-- Count -->
     <g transform="translate(18.702813 160.667712) rotate(-90) scale(0.1 -0.1)">
      <use xlink:href="#DejaVuSans-43"/>
      <use xlink:href="#DejaVuSans-6f" x="69.824219"/>
      <use xlink:href="#DejaVuSans-75" x="131.005859"/>
      <use xlink:href="#DejaVuSans-6e" x="194.384766"/>
      <use xlink:href="#DejaVuSans-74" x="257.763672"/>
     </g>
    </g>
   </g>
   <g id="patch_33">
    <path d="M 50.87 264.758549 
L 50.87 26.88 
" style="fill: none; stroke: #000000; stroke-width: 0.8; stroke-linejoin: miter; stroke-linecap: square"/>
   </g>
   <g id="patch_34">
    <path d="M 709.2 264.758549 
L 709.2 26.88 
" style="fill: none; stroke: #000000; stroke-width: 0.8; stroke-linejoin: miter; stroke-linecap: square"/>
   </g>
   <g id="patch_35">
    <path d="M 50.87 264.758549 
L 709.2 264.758549 
" style="fill: none; stroke: #000000; stroke-width: 0.8; stroke-linejoin: miter; stroke-linecap: square"/>
   </g>
   <g id="patch_36">
    <path d="M 50.87 26.88 
L 709.2 26.88 
" style="fill: none; stroke: #000000; stroke-width: 0.8; stroke-linejoin: miter; stroke-linecap: square"/>
   </g>
   <g id="text_38">
    <!-- Domain Classification Counts -->
    <g transform="translate(292.29625 20.88) scale(0.12 -0.12)">
     <use xlink:href="#DejaVuSans-44"/>
     <use xlink:href="#DejaVuSans-6f" x="77.001953"/>
     <use xlink:href="#DejaVuSans-6d" x="138.183594"/>
     <use xlink:href="#DejaVuSans-61" x="235.595703"/>
     <use xlink:href="#DejaVuSans-69" x="296.875"/>
     <use xlink:href="#DejaVuSans-6e" x="324.658203"/>
     <use xlink:href="#DejaVuSans-20" x="388.037109"/>
     <use xlink:href="#DejaVuSans-43" x="419.824219"/>
     <use xlink:href="#DejaVuSans-6c" x="489.648438"/>
     <use xlink:href="#DejaVuSans-61" x="517.431641"/>
     <use xlink:href="#DejaVuSans-73" x="578.710938"/>
     <use xlink:href="#DejaVuSans-73" x="630.810547"/>
     <use xlink:href="#DejaVuSans-69" x="682.910156"/>
     <use xlink:href="#DejaVuSans-66" x="710.693359"/>
     <use xlink:href="#DejaVuSans-69" x="745.898438"/>
     <use xlink:href="#DejaVuSans-63" x="773.681641"/>
     <use xlink:href="#DejaVuSans-61" x="828.662109"/>
     <use xlink:href="#DejaVuSans-74" x="889.941406"/>
     <use xlink:href="#DejaVuSans-69" x="929.150391"/>
     <use xlink:href="#DejaVuSans-6f" x="956.933594"/>
     <use xlink:href="#DejaVuSans-6e" x="1018.115234"/>
     <use xlink:href="#DejaVuSans-20" x="1081.494141"/>
     <use xlink:href="#DejaVuSans-43" x="1113.28125"/>
     <use xlink:href="#DejaVuSans-6f" x="1183.105469"/>
     <use xlink:href="#DejaVuSans-75" x="1244.287109"/>
     <use xlink:href="#DejaVuSans-6e" x="1307.666016"/>
     <use xlink:href="#DejaVuSans-74" x="1371.044922"/>
     <use xlink:href="#DejaVuSans-73" x="1410.253906"/>
    </g>
   </g>
  </g>
 </g>
 <defs>
  <clipPath id="pab5d93cb88">
   <rect x="50.87" y="26.88" width="658.33" height="237.878549"/>
  </clipPath>
 </defs>
</svg>
